<?xml version="1.0" encoding="UTF-8"?>
<svg width="28px" height="28px" viewBox="0 0 28 28" version="1.1" xmlns="http://www.w3.org/2000/svg" xmlns:xlink="http://www.w3.org/1999/xlink">
    <!-- Generator: Sketch 46.2 (44496) - http://www.bohemiancoding.com/sketch -->
    <title>Facebook-black</title>
    <desc>Created with Sketch.</desc>
    <defs>
        <filter x="-0.6%" y="-12.5%" width="101.2%" height="132.7%" filterUnits="objectBoundingBox" id="filter-1">
            <feOffset dx="0" dy="2" in="SourceAlpha" result="shadowOffsetOuter1"></feOffset>
            <feGaussianBlur stdDeviation="2.5" in="shadowOffsetOuter1" result="shadowBlurOuter1"></feGaussianBlur>
            <feColorMatrix values="0 0 0 0 0   0 0 0 0 0   0 0 0 0 0  0 0 0 0.216004303 0" type="matrix" in="shadowBlurOuter1" result="shadowMatrixOuter1"></feColorMatrix>
            <feMerge>
                <feMergeNode in="shadowMatrixOuter1"></feMergeNode>
                <feMergeNode in="SourceGraphic"></feMergeNode>
            </feMerge>
        </filter>
    </defs>
    <g id="Page-1" stroke="none" stroke-width="1" fill="none" fill-rule="evenodd">
        <g id="Desktop-HD" transform="translate(-606.000000, -761.000000)" fill="#000000">
            <g id="NAVBAR" filter="url(#filter-1)" transform="translate(0.000000, 747.000000)">
                <g id="Group" transform="translate(583.000000, 17.000000)">
                    <path d="M28.9934618,18 C28.4446272,18 28,17.5550968 28,17.006476 L28,0.993454111 C28,0.444693639 28.4446971,0 28.9934618,0 L45.006608,0 C45.5552331,0 46,0.444693639 46,0.993454111 L46,17.006476 C46,17.5551667 45.5551632,18 45.006608,18 L40.4197395,18 L40.4197395,11.029408 L42.7594454,11.029408 L43.1097832,8.31284461 L40.4197395,8.31284461 L40.4197395,6.57849053 C40.4197395,5.79198274 40.6381418,5.25600363 41.7659836,5.25600363 L43.2044917,5.25537504 L43.2044917,2.82565895 C42.9557072,2.79255313 42.1017938,2.71858885 41.108332,2.71858885 C39.0343128,2.71858885 37.6143832,3.98457234 37.6143832,6.30945332 L37.6143832,8.31284461 L35.2686707,8.31284461 L35.2686707,11.029408 L37.6143832,11.029408 L37.6143832,18 L28.9934618,18 Z" id="Facebook"></path>
                </g>
            </g>
        </g>
    </g>
</svg>