<?xml version="1.0" encoding="UTF-8"?>
<svg width="18px" height="18px" viewBox="0 0 18 18" version="1.1" xmlns="http://www.w3.org/2000/svg" xmlns:xlink="http://www.w3.org/1999/xlink">
    <!-- Generator: Sketch 47.1 (45422) - http://www.bohemiancoding.com/sketch -->
    <title>Facebook-black</title>
    <desc>Created with Sketch.</desc>
    <defs></defs>
    <g id="Page-1" stroke="none" stroke-width="1" fill="none" fill-rule="evenodd">
        <path d="M9.61438322,18 L0.993461821,18 C0.444627246,18 0,17.5550968 0,17.006476 L0,0.993454111 C0,0.444693639 0.44469709,0 0.993461821,0 L17.006608,0 C17.5552331,0 18,0.444693639 18,0.993454111 L18,17.006476 C18,17.5551667 17.5551632,18 17.006608,18 L12.4197395,18 L12.4197395,11.029408 L14.7594454,11.029408 L15.1097832,8.31284461 L12.4197395,8.31284461 L12.4197395,6.57849053 C12.4197395,5.79198274 12.6381418,5.25600363 13.7659836,5.25600363 L15.2044917,5.25537504 L15.2044917,2.82565895 C14.9557072,2.79255313 14.1017938,2.71858885 13.108332,2.71858885 C11.0343128,2.71858885 9.61438322,3.98457234 9.61438322,6.30945332 L9.61438322,8.31284461 L7.26867067,8.31284461 L7.26867067,11.029408 L9.61438322,11.029408 L9.61438322,18 L9.61438322,18 Z" id="Facebook" fill="#F5F5F5"></path>
    </g>
</svg>