<?xml version="1.0" encoding="UTF-8"?>
<svg width="18px" height="15px" viewBox="0 0 18 15" version="1.1" xmlns="http://www.w3.org/2000/svg" xmlns:xlink="http://www.w3.org/1999/xlink">
    <!-- Generator: Sketch 47.1 (45422) - http://www.bohemiancoding.com/sketch -->
    <title>Twitter-black</title>
    <desc>Created with Sketch.</desc>
    <defs></defs>
    <g id="Page-1" stroke="none" stroke-width="1" fill="none" fill-rule="evenodd">
        <path d="M18,1.77573131 C17.338616,2.07692308 16.6265188,2.28060672 15.8795563,2.3716143 C16.6423666,1.9035753 17.2276809,1.16143012 17.5034337,0.277356446 C16.7892235,0.710725894 16,1.02600217 15.1568938,1.19501625 C14.4849445,0.459371614 13.5245642,0 12.461701,0 C10.4236661,0 8.77020602,1.69555796 8.77020602,3.78656555 C8.77020602,4.08342362 8.80190174,4.3716143 8.86529319,4.64897075 C5.79609086,4.4907909 3.07554147,2.98483207 1.25303751,0.691224269 C0.935023772,1.2524377 0.753301638,1.9035753 0.753301638,2.59696641 C0.753301638,3.91007584 1.40517697,5.06933911 2.39619651,5.74864572 C1.79186476,5.73022752 1.22134179,5.55796316 0.722662441,5.27627302 L0.722662441,5.32286024 C0.722662441,7.15817985 1.9957739,8.68905742 3.68621236,9.03575298 C3.37665082,9.12459372 3.05018489,9.16901408 2.71315372,9.16901408 C2.47543582,9.16901408 2.24300053,9.14626219 2.01796091,9.10184182 C2.4881141,10.6056338 3.85103011,11.7009751 5.46751189,11.7302275 C4.20390914,12.7464789 2.61067089,13.3521127 0.881141046,13.3521127 C0.583201268,13.3521127 0.288431062,13.3347779 0,13.3001083 C1.63444268,14.3726977 3.57633386,15 5.66085578,15 C12.4543053,15 16.1679873,9.23076923 16.1679873,4.22643554 C16.1679873,4.06175515 16.1648177,3.89707476 16.1584786,3.73564464 C16.8800845,3.20151679 17.5066033,2.53521127 18,1.77573131" id="Twitter" fill="#F5F5F5"></path>
    </g>
</svg>